<svg xmlns="http://www.w3.org/2000/svg" width="128" height="128" viewBox="0 0 128 128">
  <defs>
    <linearGradient id="bg" x1="0%" y1="0%" x2="100%" y2="100%">
      <stop offset="0%" style="stop-color:#FF6B6B"/>
      <stop offset="100%" style="stop-color:#EE5A24"/>
    </linearGradient>
    <linearGradient id="badge" x1="0%" y1="0%" x2="100%" y2="100%">
      <stop offset="0%" style="stop-color:#FFEAA7"/>
      <stop offset="100%" style="stop-color:#FDCB6E"/>
    </linearGradient>
  </defs>
  <rect x="4" y="4" width="120" height="120" rx="24" fill="url(#bg)"/>
  <g transform="translate(28, 24)">
    <rect x="0" y="0" width="72" height="56" rx="6" fill="rgba(255,255,255,0.2)" stroke="rgba(255,255,255,0.4)" stroke-width="1.5"/>
    <rect x="4" y="4" width="64" height="6" rx="2" fill="rgba(255,255,255,0.3)"/>
    <circle cx="8" cy="7" r="2" fill="rgba(255,255,255,0.5)"/>
    <circle cx="14" cy="7" r="2" fill="rgba(255,255,255,0.5)"/>
    <circle cx="20" cy="7" r="2" fill="rgba(255,255,255,0.5)"/>
    <line x1="8" y1="18" x2="60" y2="18" stroke="rgba(255,255,255,0.4)" stroke-width="1"/>
    <rect x="8" y="22" width="52" height="3" rx="1.5" fill="rgba(255,255,255,0.7)"/>
    <rect x="8" y="28" width="40" height="3" rx="1.5" fill="rgba(255,255,255,0.5)"/>
    <rect x="8" y="34" width="48" height="3" rx="1.5" fill="rgba(255,255,255,0.6)"/>
    <line x1="8" y1="42" x2="60" y2="42" stroke="rgba(255,255,255,0.2)" stroke-width="0.5" stroke-dasharray="2,2"/>
    <rect x="8" y="46" width="35" height="3" rx="1.5" fill="rgba(255,255,255,0.4)"/>
  </g>
  <g transform="translate(76, 18)">
    <rect x="-16" y="-12" width="32" height="24" rx="12" fill="url(#badge)" stroke="rgba(255,255,255,0.3)" stroke-width="1"/>
    <text x="0" y="3" text-anchor="middle" fill="#D63031" font-size="12" font-weight="bold" font-family="Arial">WR</text>
  </g>
</svg>
